<svg version="1.1" id="Layer_1" xmlns="http://www.w3.org/2000/svg" xmlns:xlink="http://www.w3.org/1999/xlink" x="0px" y="0px"
	 width="100%" viewBox="0 0 500 500" enable-background="new 0 0 500 500" xml:space="preserve">
<path fill="#000000" opacity="1.000000" stroke="none" 
	d="
M236.000000,501.000000 
	C157.333359,501.000000 79.166702,501.000000 1.000042,501.000000 
	C1.000028,334.333405 1.000028,167.666779 1.000014,1.000131 
	C167.666565,1.000088 334.333130,1.000088 500.999756,1.000044 
	C500.999847,167.666519 500.999847,334.333038 500.999939,500.999786 
	C412.833344,501.000000 324.666656,501.000000 236.000000,501.000000 
M325.996002,218.999680 
	C325.996002,218.999680 325.990845,218.932404 325.221924,219.361618 
	C325.157684,239.809616 325.080688,260.257599 325.083832,280.705597 
	C325.083923,281.400879 325.889709,282.096039 326.804291,283.271698 
	C330.506104,285.444519 334.207916,287.617371 338.791321,289.858734 
	C339.198395,288.610779 339.956818,287.363892 339.960480,286.114746 
	C340.029236,262.712311 340.027740,239.309555 339.950592,215.907166 
	C339.946655,214.710739 339.132202,213.516983 338.008118,212.133453 
	C334.681305,214.082962 331.354492,216.032471 327.398651,218.079575 
	C326.908630,218.385498 326.418579,218.691422 325.996002,218.999680 
M162.421158,290.738495 
	C166.901337,288.214172 171.381516,285.689819 176.701584,282.795227 
	C176.797379,262.076691 176.901901,241.358154 176.933777,220.639511 
	C176.934494,220.169052 176.112198,219.697327 175.177765,218.748459 
	C170.976868,216.263229 166.775986,213.778015 161.631256,211.080307 
	C161.424026,211.844299 161.036728,212.608047 161.035690,213.372314 
	C161.002274,237.837250 160.990692,262.302277 161.054459,286.767090 
	C161.057373,287.886322 161.789032,289.003632 162.421158,290.738495 
M242.160629,176.049454 
	C235.072220,180.185455 227.996490,184.343353 220.892227,188.451965 
	C211.657394,193.792755 202.295547,198.924301 193.206451,204.501312 
	C189.839478,206.567291 186.893860,205.978561 184.029861,204.423889 
	C178.778717,201.573395 173.640381,198.482285 168.651764,195.193100 
	C165.592957,193.176331 161.715225,191.994644 161.858734,186.766449 
	C162.182510,174.971634 152.178741,165.370102 140.317871,164.955841 
	C130.338364,164.607300 123.229286,169.681244 119.437576,177.830338 
	C116.484901,184.176208 116.555580,191.569489 120.763054,198.457901 
	C128.654541,211.377701 144.684662,213.382339 154.817368,204.045258 
	C163.149445,208.668594 171.491989,213.297729 180.012466,218.568817 
	C180.357971,218.843857 180.703461,219.118881 180.969040,219.587112 
	C180.969040,219.587112 181.105637,219.745392 181.015182,220.731506 
	C181.010864,223.557846 181.016678,226.384262 181.000580,229.210526 
	C180.898392,247.152039 180.791382,265.093506 180.085098,283.334442 
	C172.447174,287.702728 164.704071,291.901703 157.235168,296.542053 
	C154.981064,297.942505 153.899750,297.751129 151.671036,296.480225 
	C144.619553,292.459259 136.286697,291.967896 129.655823,295.487152 
	C117.371567,302.006836 115.289078,314.487976 121.507889,327.338135 
	C125.390175,335.360199 136.275925,338.827454 142.653778,337.830444 
	C157.389954,335.526855 164.693832,323.990265 162.422485,310.977905 
	C170.015640,306.447540 177.585617,301.770233 185.345627,297.432953 
	C186.949982,296.536194 189.669708,296.082001 191.176788,296.830475 
	C198.066986,300.252289 204.740967,304.117859 211.431992,307.930389 
	C221.975418,313.938049 232.470230,320.030975 243.010574,327.008820 
	C243.005981,335.961090 243.057053,344.914001 242.948044,353.865021 
	C242.927155,355.579163 242.276077,357.285614 241.199234,358.989014 
	C240.277679,359.635040 239.406570,360.372498 238.426788,360.912994 
	C228.104050,366.607361 226.673904,382.578583 232.395523,391.105988 
	C238.104034,399.613831 245.442047,402.162659 255.301605,401.206146 
	C264.909821,400.274048 274.060211,388.605591 274.143890,381.058624 
	C274.269196,369.761871 268.218292,363.136658 259.019318,357.140381 
	C259.032837,346.778076 259.046356,336.415741 259.780396,325.983276 
	C277.562714,315.678345 295.345001,305.373413 312.761627,295.280426 
	C319.670410,299.248596 326.333679,303.198425 333.117859,306.928253 
	C337.480652,309.326904 341.373260,311.763092 340.084717,317.773743 
	C339.819275,319.012054 339.893097,320.537109 340.379852,321.689545 
	C345.221527,333.152832 354.138336,337.844391 363.917206,337.078156 
	C374.180725,336.274017 380.613739,331.341583 383.649139,322.389587 
	C386.967499,312.602997 382.810760,303.586365 375.979736,298.106018 
	C367.441956,291.256409 358.153870,290.921387 348.711609,296.721985 
	C347.861206,297.244385 346.260712,297.456909 345.459778,297.008087 
	C337.204010,292.382324 329.041260,287.590546 320.972900,281.936218 
	C320.997070,260.979950 321.021271,240.023712 321.698975,218.809433 
	C322.666534,217.918381 323.504395,216.792984 324.622589,216.174042 
	C332.308197,211.920044 340.052399,207.772018 347.801025,203.577301 
	C352.589264,209.827927 363.230164,210.593536 369.261353,208.042419 
	C378.768738,204.020889 384.477997,196.889938 384.044586,185.697571 
	C383.385651,168.681000 365.745605,160.988800 352.355164,166.352020 
	C343.655975,169.836258 339.231262,176.736450 339.924469,186.502838 
	C340.042816,188.170349 339.801178,190.813644 338.771698,191.441376 
	C335.091187,193.685577 331.000092,195.256317 326.351044,196.682617 
	C327.059387,195.913315 327.767761,195.144012 328.816681,194.004822 
	C306.495026,181.130814 284.269226,168.312088 261.027283,154.907333 
	C261.027283,159.648315 261.268097,163.578476 260.958313,167.464752 
	C260.659302,171.215927 262.744507,173.223541 265.502075,174.786621 
	C280.560303,183.322021 295.707336,191.701874 310.712860,200.328247 
	C313.794708,202.099945 316.227783,202.305145 319.279877,200.341583 
	C321.640472,198.822876 324.507050,198.090668 326.798798,197.618866 
	C322.347717,200.481277 317.934540,203.406540 313.405090,206.139023 
	C312.717957,206.553558 311.303040,206.396408 310.541901,205.955826 
	C302.500519,201.301041 294.566650,196.460266 286.517365,191.819519 
	C277.324646,186.519531 268.044952,181.370300 258.985626,175.206055 
	C258.931366,164.739822 258.877106,154.273590 259.283112,143.249405 
	C268.297028,141.404953 276.108612,126.402542 273.149078,118.199783 
	C270.807220,111.709099 267.061951,106.776932 261.447906,103.224174 
	C256.373474,100.012932 243.294006,99.846848 237.229446,104.732033 
	C232.481827,108.556404 229.677643,113.297821 228.333313,118.712975 
	C226.469727,126.219765 229.407135,133.034912 234.363235,138.540665 
	C236.433823,140.840866 240.119644,141.687042 243.027298,144.095947 
	C242.973099,154.760193 242.918900,165.424423 242.160629,176.049454 
M202.934799,193.580368 
	C204.513504,192.423340 205.997681,191.100723 207.686554,190.136627 
	C217.366119,184.611145 227.013443,179.018906 236.849258,173.782852 
	C240.353668,171.917313 242.662704,170.114853 242.069489,165.655273 
	C241.612625,162.220810 241.978424,158.676895 241.978424,155.181656 
	C241.405640,155.015610 240.832855,154.849548 240.260071,154.683502 
	C217.754944,167.560974 195.249817,180.438431 171.845291,193.830551 
	C176.008698,196.173691 179.384155,197.533508 182.084686,199.725006 
	C185.754196,202.702835 188.747559,201.806870 192.195541,199.566345 
	C195.411362,197.476639 198.893356,195.796555 202.934799,193.580368 
M181.763840,301.836975 
	C178.738937,303.815308 175.714050,305.793610 171.945175,308.258514 
	C195.360992,322.112396 218.078064,335.121948 241.996048,348.391174 
	C241.996048,343.478241 241.703903,340.300751 242.068512,337.200531 
	C242.545822,333.142059 240.863571,330.903900 237.419052,328.981201 
	C223.937759,321.455902 210.707901,313.473633 197.132629,306.126801 
	C192.617065,303.682953 188.434540,299.224426 181.763840,301.836975 
M328.739899,308.557861 
	C325.526733,306.391541 322.104919,304.473358 319.155548,301.993317 
	C315.803497,299.174652 313.218109,300.437775 310.074860,302.324677 
	C302.485168,306.880951 294.698425,311.108582 286.997772,315.480377 
	C279.295135,319.853302 271.582336,324.208832 263.911041,328.636200 
	C260.576630,330.560608 259.639099,341.408752 262.508698,347.071198 
	C284.445282,334.407013 306.359375,321.755798 328.739899,308.557861 
z"/>
<path fill="#23ACDF" opacity="1.000000" stroke="none" 
	d="
M320.852570,282.845032 
	C329.041260,287.590546 337.204010,292.382324 345.459778,297.008087 
	C346.260712,297.456909 347.861206,297.244385 348.711609,296.721985 
	C358.153870,290.921387 367.441956,291.256409 375.979736,298.106018 
	C382.810760,303.586365 386.967499,312.602997 383.649139,322.389587 
	C380.613739,331.341583 374.180725,336.274017 363.917206,337.078156 
	C354.138336,337.844391 345.221527,333.152832 340.379852,321.689545 
	C339.893097,320.537109 339.819275,319.012054 340.084717,317.773743 
	C341.373260,311.763092 337.480652,309.326904 333.117859,306.928253 
	C326.333679,303.198425 319.670410,299.248596 312.761627,295.280426 
	C295.345001,305.373413 277.562714,315.678345 259.017639,326.185089 
	C258.153534,336.190186 258.022797,345.993469 258.008606,355.796875 
	C258.007507,356.551208 258.827545,357.306763 259.265900,358.061737 
	C268.218292,363.136658 274.269196,369.761871 274.143890,381.058624 
	C274.060211,388.605591 264.909821,400.274048 255.301605,401.206146 
	C245.442047,402.162659 238.104034,399.613831 232.395523,391.105988 
	C226.673904,382.578583 228.104050,366.607361 238.426788,360.912994 
	C239.406570,360.372498 240.277679,359.635040 241.952927,358.879761 
	C243.156433,357.628326 243.981720,356.490936 243.996384,355.343201 
	C244.107880,346.612244 244.096313,337.878937 244.015823,329.147339 
	C244.006393,328.124420 243.344864,327.107513 242.985626,326.087799 
	C232.470230,320.030975 221.975418,313.938049 211.431992,307.930389 
	C204.740967,304.117859 198.066986,300.252289 191.176788,296.830475 
	C189.669708,296.082001 186.949982,296.536194 185.345627,297.432953 
	C177.585617,301.770233 170.015640,306.447540 162.422485,310.977905 
	C164.693832,323.990265 157.389954,335.526855 142.653778,337.830444 
	C136.275925,338.827454 125.390175,335.360199 121.507889,327.338135 
	C115.289078,314.487976 117.371567,302.006836 129.655823,295.487152 
	C136.286697,291.967896 144.619553,292.459259 151.671036,296.480225 
	C153.899750,297.751129 154.981064,297.942505 157.235168,296.542053 
	C164.704071,291.901703 172.447174,287.702728 180.686584,282.881714 
	C181.528091,281.319763 181.974792,280.211060 181.977341,279.101318 
	C182.020065,260.575836 182.024780,242.050186 181.968063,223.524796 
	C181.964203,222.264114 181.406021,221.005157 181.105637,219.745392 
	C181.105637,219.745392 180.969040,219.587112 180.918457,219.160690 
	C180.523422,218.465134 180.178986,218.195999 179.834534,217.926865 
	C171.491989,213.297729 163.149445,208.668594 154.817368,204.045258 
	C144.684662,213.382339 128.654541,211.377701 120.763054,198.457901 
	C116.555580,191.569489 116.484901,184.176208 119.437576,177.830338 
	C123.229286,169.681244 130.338364,164.607300 140.317871,164.955841 
	C152.178741,165.370102 162.182510,174.971634 161.858734,186.766449 
	C161.715225,191.994644 165.592957,193.176331 168.651764,195.193100 
	C173.640381,198.482285 178.778717,201.573395 184.029861,204.423889 
	C186.893860,205.978561 189.839478,206.567291 193.206451,204.501312 
	C202.295547,198.924301 211.657394,193.792755 220.892227,188.451965 
	C227.996490,184.343353 235.072220,180.185455 242.879303,175.821823 
	C243.749893,166.176758 243.944305,156.759598 244.006973,147.341568 
	C244.016144,145.961288 243.398605,144.576843 243.071060,143.194336 
	C240.119644,141.687042 236.433823,140.840866 234.363235,138.540665 
	C229.407135,133.034912 226.469727,126.219765 228.333313,118.712975 
	C229.677643,113.297821 232.481827,108.556404 237.229446,104.732033 
	C243.294006,99.846848 256.373474,100.012932 261.447906,103.224174 
	C267.061951,106.776932 270.807220,111.709099 273.149078,118.199783 
	C276.108612,126.402542 268.297028,141.404953 258.730133,143.826294 
	C258.101257,151.138718 257.913300,157.875580 257.992676,164.609283 
	C258.038086,168.460678 258.518524,172.306961 258.803070,176.155548 
	C268.044952,181.370300 277.324646,186.519531 286.517365,191.819519 
	C294.566650,196.460266 302.500519,201.301041 310.541901,205.955826 
	C311.303040,206.396408 312.717957,206.553558 313.405090,206.139023 
	C317.934540,203.406540 322.347717,200.481277 326.941956,197.319763 
	C327.085144,197.020645 327.064301,197.081848 327.064301,197.081848 
	C331.000092,195.256317 335.091187,193.685577 338.771698,191.441376 
	C339.801178,190.813644 340.042816,188.170349 339.924469,186.502838 
	C339.231262,176.736450 343.655975,169.836258 352.355164,166.352020 
	C365.745605,160.988800 383.385651,168.681000 384.044586,185.697571 
	C384.477997,196.889938 378.768738,204.020889 369.261353,208.042419 
	C363.230164,210.593536 352.589264,209.827927 347.801025,203.577301 
	C340.052399,207.772018 332.308197,211.920044 324.622589,216.174042 
	C323.504395,216.792984 322.666534,217.918381 320.974518,219.112549 
	C320.164551,239.995575 320.072174,260.575500 320.029846,281.155487 
	C320.028687,281.718109 320.566223,282.281830 320.852570,282.845032 
M196.808411,283.019012 
	C198.410934,284.088623 199.958450,285.253754 201.624588,286.212891 
	C215.865204,294.410431 230.102600,302.614410 244.408249,310.697327 
	C246.695251,311.989532 249.744827,314.022308 251.697800,313.395264 
	C256.244385,311.935516 260.422028,309.205933 264.597961,306.735352 
	C276.605225,299.631470 288.466614,292.278259 300.541687,285.293365 
	C304.253754,283.146088 306.302582,281.030182 306.167999,276.234863 
	C305.766388,261.927094 305.617401,247.585068 306.174347,233.287766 
	C306.508972,224.697678 305.463928,218.733154 296.317078,214.359344 
	C280.954803,207.013489 266.541229,197.685425 251.694626,189.250931 
	C251.263000,189.005753 250.360626,189.270477 249.828735,189.567673 
	C239.223404,195.493652 228.650970,201.478470 218.049011,207.410507 
	C211.096436,211.300613 204.107666,215.126083 196.336853,219.190109 
	C195.879837,220.669739 195.032242,222.147507 195.025223,223.629257 
	C194.938995,241.866531 194.948746,260.104492 195.028748,278.341858 
	C195.035538,279.891296 195.723114,281.437744 196.808411,283.019012 
M141.191177,323.943420 
	C142.950333,322.627380 145.527222,321.658966 146.270218,319.911011 
	C147.294144,317.502136 148.116638,313.616211 146.882263,311.971130 
	C145.115723,309.616882 140.920120,306.950195 138.644211,307.584259 
	C134.643265,308.698944 132.023056,312.479431 132.936310,317.562744 
	C133.715286,321.898743 136.613068,323.377106 141.191177,323.943420 
M255.413651,116.878181 
	C252.634598,113.664299 248.934738,114.269310 246.602142,116.418625 
	C244.643188,118.223679 243.457504,121.745117 243.397049,124.538429 
	C243.292831,129.351685 247.507477,130.590469 251.260178,130.516510 
	C253.200974,130.478226 255.636169,128.616852 256.897369,126.886353 
	C259.174530,123.761795 259.244141,120.283653 255.413651,116.878181 
M368.003021,189.618057 
	C368.645691,188.355682 370.113647,186.797791 369.786011,185.882843 
	C368.470642,182.209305 366.033447,179.317215 361.750580,179.016922 
	C357.320862,178.706345 354.366791,182.462799 354.445831,185.279190 
	C354.537109,188.529221 357.119659,192.799011 359.921783,194.591064 
	C363.013123,196.568069 366.378021,194.065323 368.003021,189.618057 
M355.011566,316.527039 
	C355.636963,317.457733 356.258240,318.391205 356.888458,319.318604 
	C358.968170,322.379028 363.302948,323.283722 366.223511,321.269867 
	C369.951385,318.699432 370.758514,314.630920 368.640472,311.120819 
	C366.690613,307.889465 364.060669,305.863464 360.455444,307.132935 
	C356.628662,308.480347 354.129913,311.398560 355.011566,316.527039 
M132.872375,190.415207 
	C134.238342,194.399551 137.373856,195.952240 141.034973,194.842377 
	C143.266724,194.165802 145.899002,192.126083 146.706146,190.056885 
	C147.950424,186.867111 147.392715,182.879730 143.881241,181.159607 
	C141.700470,180.091324 138.230316,179.626129 136.244308,180.648712 
	C132.987793,182.325485 131.016724,185.654602 132.872375,190.415207 
M244.029510,382.025055 
	C244.324539,382.600159 244.477753,383.491943 244.938049,383.698090 
	C247.566589,384.875458 250.624649,387.220581 252.855179,386.623383 
	C255.664215,385.871246 258.905121,383.740112 259.083557,379.517120 
	C259.247803,375.629669 256.906494,373.859131 253.996277,372.572235 
	C248.771530,370.261810 244.016174,374.440826 244.029510,382.025055 
z"/>
<path fill="#27ABDE" opacity="1.000000" stroke="none" 
	d="
M202.596497,193.758270 
	C198.893356,195.796555 195.411362,197.476639 192.195541,199.566345 
	C188.747559,201.806870 185.754196,202.702835 182.084686,199.725006 
	C179.384155,197.533508 176.008698,196.173691 171.845291,193.830551 
	C195.249817,180.438431 217.754944,167.560974 240.260071,154.683502 
	C240.832855,154.849548 241.405640,155.015610 241.978424,155.181656 
	C241.978424,158.676895 241.612625,162.220810 242.069489,165.655273 
	C242.662704,170.114853 240.353668,171.917313 236.849258,173.782852 
	C227.013443,179.018906 217.366119,184.611145 207.686554,190.136627 
	C205.997681,191.100723 204.513504,192.423340 202.596497,193.758270 
z"/>
<path fill="#27ACDF" opacity="1.000000" stroke="none" 
	d="
M182.042542,301.547668 
	C188.434540,299.224426 192.617065,303.682953 197.132629,306.126801 
	C210.707901,313.473633 223.937759,321.455902 237.419052,328.981201 
	C240.863571,330.903900 242.545822,333.142059 242.068512,337.200531 
	C241.703903,340.300751 241.996048,343.478241 241.996048,348.391174 
	C218.078064,335.121948 195.360992,322.112396 171.945175,308.258514 
	C175.714050,305.793610 178.738937,303.815308 182.042542,301.547668 
z"/>
<path fill="#27ACDF" opacity="1.000000" stroke="none" 
	d="
M328.506683,308.831238 
	C306.359375,321.755798 284.445282,334.407013 262.508698,347.071198 
	C259.639099,341.408752 260.576630,330.560608 263.911041,328.636200 
	C271.582336,324.208832 279.295135,319.853302 286.997772,315.480377 
	C294.698425,311.108582 302.485168,306.880951 310.074860,302.324677 
	C313.218109,300.437775 315.803497,299.174652 319.155548,301.993317 
	C322.104919,304.473358 325.526733,306.391541 328.506683,308.831238 
z"/>
<path fill="#27ACDF" opacity="1.000000" stroke="none" 
	d="
M327.116943,197.014740 
	C324.507050,198.090668 321.640472,198.822876 319.279877,200.341583 
	C316.227783,202.305145 313.794708,202.099945 310.712860,200.328247 
	C295.707336,191.701874 280.560303,183.322021 265.502075,174.786621 
	C262.744507,173.223541 260.659302,171.215927 260.958313,167.464752 
	C261.268097,163.578476 261.027283,159.648315 261.027283,154.907333 
	C284.269226,168.312088 306.495026,181.130814 328.816681,194.004822 
	C327.767761,195.144012 327.059387,195.913315 326.707672,196.882233 
	C327.064301,197.081848 327.085144,197.020645 327.116943,197.014740 
z"/>
<path fill="#24AADC" opacity="1.000000" stroke="none" 
	d="
M162.575104,211.292786 
	C166.775986,213.778015 170.976868,216.263229 175.513489,219.432404 
	C175.853348,241.132721 175.857513,262.149109 175.861679,283.165466 
	C171.381516,285.689819 166.901337,288.214172 162.263229,289.950134 
	C162.077805,264.679932 162.040680,240.198105 162.046661,215.716278 
	C162.047028,214.241730 162.391006,212.767288 162.575104,211.292786 
z"/>
<path fill="#20ACDF" opacity="1.000000" stroke="none" 
	d="
M337.909729,289.790192 
	C334.207916,287.617371 330.506104,285.444519 326.472778,282.582336 
	C326.091095,260.906097 326.040955,239.919250 325.990845,218.932404 
	C325.990845,218.932404 325.996002,218.999680 326.257263,218.951996 
	C327.021576,218.596878 327.524658,218.289444 328.027710,217.981995 
	C331.354492,216.032471 334.681305,214.082962 338.445618,212.667664 
	C338.904419,237.321976 338.943207,261.442078 338.902618,285.562073 
	C338.900238,286.971985 338.255524,288.380829 337.909729,289.790192 
z"/>
<path fill="#91CFE7" opacity="1.000000" stroke="none" 
	d="
M338.350525,289.824463 
	C338.255524,288.380829 338.900238,286.971985 338.902618,285.562073 
	C338.943207,261.442078 338.904419,237.321976 338.789124,212.761932 
	C339.132202,213.516983 339.946655,214.710739 339.950592,215.907166 
	C340.027740,239.309555 340.029236,262.712311 339.960480,286.114746 
	C339.956818,287.363892 339.198395,288.610779 338.350525,289.824463 
z"/>
<path fill="#C6FFFF" opacity="1.000000" stroke="none" 
	d="
M162.103180,211.186554 
	C162.391006,212.767288 162.047028,214.241730 162.046661,215.716278 
	C162.040680,240.198105 162.077805,264.679932 162.143295,289.641785 
	C161.789032,289.003632 161.057373,287.886322 161.054459,286.767090 
	C160.990692,262.302277 161.002274,237.837250 161.035690,213.372314 
	C161.036728,212.608047 161.424026,211.844299 162.103180,211.186554 
z"/>
<path fill="#FFFFFF" opacity="1.000000" stroke="none" 
	d="
M320.912720,282.390625 
	C320.566223,282.281830 320.028687,281.718109 320.029846,281.155487 
	C320.072174,260.575500 320.164551,239.995575 320.647766,219.241547 
	C321.021271,240.023712 320.997070,260.979950 320.912720,282.390625 
z"/>
<path fill="#70C9EA" opacity="1.000000" stroke="none" 
	d="
M325.606384,219.147003 
	C326.040955,239.919250 326.091095,260.906097 326.230591,282.342102 
	C325.889709,282.096039 325.083923,281.400879 325.083832,280.705597 
	C325.080688,260.257599 325.157684,239.809616 325.606384,219.147003 
z"/>
<path fill="#C6FFFF" opacity="1.000000" stroke="none" 
	d="
M176.281631,282.980347 
	C175.857513,262.149109 175.853348,241.132721 175.761505,219.671265 
	C176.112198,219.697327 176.934494,220.169052 176.933777,220.639511 
	C176.901901,241.358154 176.797379,262.076691 176.281631,282.980347 
z"/>
<path fill="#70C9EA" opacity="1.000000" stroke="none" 
	d="
M181.060410,220.238449 
	C181.406021,221.005157 181.964203,222.264114 181.968063,223.524796 
	C182.024780,242.050186 182.020065,260.575836 181.977341,279.101318 
	C181.974792,280.211060 181.528091,281.319763 180.987015,282.731964 
	C180.791382,265.093506 180.898392,247.152039 181.000580,229.210526 
	C181.016678,226.384262 181.010864,223.557846 181.060410,220.238449 
z"/>
<path fill="#C6FFFF" opacity="1.000000" stroke="none" 
	d="
M242.998108,326.548309 
	C243.344864,327.107513 244.006393,328.124420 244.015823,329.147339 
	C244.096313,337.878937 244.107880,346.612244 243.996384,355.343201 
	C243.981720,356.490936 243.156433,357.628326 242.311157,358.883087 
	C242.276077,357.285614 242.927155,355.579163 242.948044,353.865021 
	C243.057053,344.914001 243.005981,335.961090 242.998108,326.548309 
z"/>
<path fill="#C6FFFF" opacity="1.000000" stroke="none" 
	d="
M243.049179,143.645142 
	C243.398605,144.576843 244.016144,145.961288 244.006973,147.341568 
	C243.944305,156.759598 243.749893,166.176758 243.231354,175.841431 
	C242.918900,165.424423 242.973099,154.760193 243.049179,143.645142 
z"/>
<path fill="#FFFFFF" opacity="1.000000" stroke="none" 
	d="
M258.894348,175.680801 
	C258.518524,172.306961 258.038086,168.460678 257.992676,164.609283 
	C257.913300,157.875580 258.101257,151.138718 258.500000,144.105270 
	C258.877106,154.273590 258.931366,164.739822 258.894348,175.680801 
z"/>
<path fill="#FFFFFF" opacity="1.000000" stroke="none" 
	d="
M259.142609,357.601074 
	C258.827545,357.306763 258.007507,356.551208 258.008606,355.796875 
	C258.022797,345.993469 258.153534,336.190186 258.657379,326.220154 
	C259.046356,336.415741 259.032837,346.778076 259.142609,357.601074 
z"/>
<path fill="#70C9EA" opacity="1.000000" stroke="none" 
	d="
M327.713196,218.030792 
	C327.524658,218.289444 327.021576,218.596878 326.223541,218.950836 
	C326.418579,218.691422 326.908630,218.385498 327.713196,218.030792 
z"/>
<path fill="#70C9EA" opacity="1.000000" stroke="none" 
	d="
M179.923492,218.247833 
	C180.178986,218.195999 180.523422,218.465134 180.958420,219.064087 
	C180.703461,219.118881 180.357971,218.843857 179.923492,218.247833 
z"/>
<path fill="#000000" opacity="1.000000" stroke="none" 
	d="
M197.135101,218.980499 
	C204.107666,215.126083 211.096436,211.300613 218.049011,207.410507 
	C228.650970,201.478470 239.223404,195.493652 249.828735,189.567673 
	C250.360626,189.270477 251.263000,189.005753 251.694626,189.250931 
	C266.541229,197.685425 280.954803,207.013489 296.317078,214.359344 
	C305.463928,218.733154 306.508972,224.697678 306.174347,233.287766 
	C305.617401,247.585068 305.766388,261.927094 306.167999,276.234863 
	C306.302582,281.030182 304.253754,283.146088 300.541687,285.293365 
	C288.466614,292.278259 276.605225,299.631470 264.597961,306.735352 
	C260.422028,309.205933 256.244385,311.935516 251.697800,313.395264 
	C249.744827,314.022308 246.695251,311.989532 244.408249,310.697327 
	C230.102600,302.614410 215.865204,294.410431 201.624588,286.212891 
	C199.958450,285.253754 198.410934,284.088623 196.410980,282.535889 
	C196.004807,262.743347 195.967087,243.433777 196.037323,224.124619 
	C196.043564,222.408600 196.752518,220.695145 197.135101,218.980499 
z"/>
<path fill="#000000" opacity="1.000000" stroke="none" 
	d="
M140.803284,323.969177 
	C136.613068,323.377106 133.715286,321.898743 132.936310,317.562744 
	C132.023056,312.479431 134.643265,308.698944 138.644211,307.584259 
	C140.920120,306.950195 145.115723,309.616882 146.882263,311.971130 
	C148.116638,313.616211 147.294144,317.502136 146.270218,319.911011 
	C145.527222,321.658966 142.950333,322.627380 140.803284,323.969177 
z"/>
<path fill="#000000" opacity="1.000000" stroke="none" 
	d="
M255.682648,117.154373 
	C259.244141,120.283653 259.174530,123.761795 256.897369,126.886353 
	C255.636169,128.616852 253.200974,130.478226 251.260178,130.516510 
	C247.507477,130.590469 243.292831,129.351685 243.397049,124.538429 
	C243.457504,121.745117 244.643188,118.223679 246.602142,116.418625 
	C248.934738,114.269310 252.634598,113.664299 255.682648,117.154373 
z"/>
<path fill="#000000" opacity="1.000000" stroke="none" 
	d="
M367.942322,189.994507 
	C366.378021,194.065323 363.013123,196.568069 359.921783,194.591064 
	C357.119659,192.799011 354.537109,188.529221 354.445831,185.279190 
	C354.366791,182.462799 357.320862,178.706345 361.750580,179.016922 
	C366.033447,179.317215 368.470642,182.209305 369.786011,185.882843 
	C370.113647,186.797791 368.645691,188.355682 367.942322,189.994507 
z"/>
<path fill="#000000" opacity="1.000000" stroke="none" 
	d="
M354.773499,316.228363 
	C354.129913,311.398560 356.628662,308.480347 360.455444,307.132935 
	C364.060669,305.863464 366.690613,307.889465 368.640472,311.120819 
	C370.758514,314.630920 369.951385,318.699432 366.223511,321.269867 
	C363.302948,323.283722 358.968170,322.379028 356.888458,319.318604 
	C356.258240,318.391205 355.636963,317.457733 354.773499,316.228363 
z"/>
<path fill="#000000" opacity="1.000000" stroke="none" 
	d="
M132.600037,190.123672 
	C131.016724,185.654602 132.987793,182.325485 136.244308,180.648712 
	C138.230316,179.626129 141.700470,180.091324 143.881241,181.159607 
	C147.392715,182.879730 147.950424,186.867111 146.706146,190.056885 
	C145.899002,192.126083 143.266724,194.165802 141.034973,194.842377 
	C137.373856,195.952240 134.238342,194.399551 132.600037,190.123672 
z"/>
<path fill="#000000" opacity="1.000000" stroke="none" 
	d="
M244.015320,381.613495 
	C244.016174,374.440826 248.771530,370.261810 253.996277,372.572235 
	C256.906494,373.859131 259.247803,375.629669 259.083557,379.517120 
	C258.905121,383.740112 255.664215,385.871246 252.855179,386.623383 
	C250.624649,387.220581 247.566589,384.875458 244.938049,383.698090 
	C244.477753,383.491943 244.324539,382.600159 244.015320,381.613495 
z"/>
<path fill="#70C9EA" opacity="1.000000" stroke="none" 
	d="
M196.735962,219.085297 
	C196.752518,220.695145 196.043564,222.408600 196.037323,224.124619 
	C195.967087,243.433777 196.004807,262.743347 196.053970,282.519196 
	C195.723114,281.437744 195.035538,279.891296 195.028748,278.341858 
	C194.948746,260.104492 194.938995,241.866531 195.025223,223.629257 
	C195.032242,222.147507 195.879837,220.669739 196.735962,219.085297 
z"/>
</svg>